:SAMPLES-PER-SECOND 30
:FRAME-RANGE 1-1770
:FULLY-SPECIFIED
:DEGREES
941
root  77.1148 38.5549 18.2816 -174.504 7.63892 -177.858
RightUpLeg  -30.1154 15.8136 -11.8834
RightLeg  16.3228 4.62215 1.32893
RightFoot  -10.1528 -0.208367 13.3522
RightToes  -1.33073e-015 0 -3.6325e-017
Spine  0.745025 -1.28536 0.600295
Spine1  6.76628 -0.480327 -2.04953
HEad  -13.0201 56.8497 -23.731
LeftShoulder1  1.0121 -0.2423 -22.4616
LeftArm  29.3514 -7.59643 -66.0307
LeftForeArm  42.9784 -40.717 -6.89762
LeftHand  -0.0507096 5.04355 11.7934
RightShoulder  1.03221 -0.147579 26.5584
RightArm  -29.1931 -21.0843 46.2233
RightForeArm  76.2071 -4.89652 2.56703
RightHand  0.355453 -8.91357 -12.6159
LeftUpLeg  -8.7214 -8.76473 -10.2058
LeftLeg  20.5832 -2.21955 0.6314
LeftFoot  -13.9836 0.418112 14.3854
LeftToes  1.09107e-011 -1.16422e-010 2.98337e-011
942
root  77.381 38.5559 17.4586 -174.972 6.11459 -177.867
RightUpLeg  -28.6166 9.91257 -8.02278
RightLeg  10.0065 10.4488 0.248909
RightFoot  -8.91346 -0.416808 16.6821
RightToes  -1.33073e-015 0 -3.6325e-017
Spine  0.081025 -1.25439 0.632122
Spine1  7.17743 -0.493656 -1.88408
HEad  -11.3376 57.1957 -22.6862
LeftShoulder1  0.958359 -0.0424542 -22.564
LeftArm  28.8782 -6.72648 -65.571
LeftForeArm  41.8117 -38.9179 -6.45479
LeftHand  -0.0527838 5.03049 12.1708
RightShoulder  1.04122 -0.117599 26.5349
RightArm  -28.8619 -20.1505 46.5932
RightForeArm  74.6774 -4.99186 2.75912
RightHand  0.383129 -8.91413 -13.4704
LeftUpLeg  -6.34417 -9.03739 -10.1058
LeftLeg  19.9653 -3.11403 0.345874
LeftFoot  -14.8997 0.546699 14.6167
LeftToes  1.09107e-011 -1.16422e-010 2.98337e-011
943
root  77.6084 38.5042 16.5651 -175.351 4.61079 -177.881
RightUpLeg  -27.4928 4.38344 -4.23503
RightLeg  5.09294 17.3619 -1.50209
RightFoot  -8.37834 -0.49669 16.874
RightToes  -1.33073e-015 0 -3.6325e-017
Spine  -0.88905 -1.26135 0.954219
Spine1  7.7721 -0.50083 -1.97808
HEad  -9.62543 57.7637 -21.7904
LeftShoulder1  0.96482 -0.043543 -22.7585
LeftArm  28.2434 -5.69879 -64.4658
LeftForeArm  39.9106 -37.8232 -6.26402
LeftHand  -0.0558774 5.00188 12.2518
RightShoulder  1.0605 -0.017168 26.1118
RightArm  -28.4405 -19.4115 46.888
RightForeArm  73.5425 -5.07622 2.987
RightHand  0.430472 -9.0572 -14.3932
LeftUpLeg  -4.1153 -8.99402 -9.96897
LeftLeg  19.6522 -4.30067 -0.1161
LeftFoot  -15.9356 0.688003 14.665
LeftToes  1.09107e-011 -1.16422e-010 2.98337e-011
944
root  77.8072 38.3692 15.5756 -175.646 3.70424 -178.132
RightUpLeg  -27.381 2.85912 -3.015
RightLeg  3.50707 19.0449 -1.52875
RightFoot  -8.33562 -0.551809 18.7006
RightToes  -1.33073e-015 0 -3.6325e-017
Spine  -1.74686 -1.0777 1.12911
Spine1  7.97059 -0.266646 -2.21788
HEad  -8.18419 58.2612 -21.1938
LeftShoulder1  0.929424 0.0971643 -22.9272
LeftArm  27.6331 -4.64906 -63.21
LeftForeArm  38.5474 -37.0767 -6.14164
LeftHand  -0.068877 4.87332 12.2119
RightShoulder  1.06425 0.0536117 25.5202
RightArm  -27.2696 -18.7421 46.4688
RightForeArm  72.9531 -5.18849 3.51724
RightHand  0.435655 -9.03834 -14.6165
LeftUpLeg  -1.97013 -8.32349 -10.1218
LeftLeg  19.5428 -5.5426 -0.539123
LeftFoot  -17.1853 0.874222 15.0004
LeftToes  1.09107e-011 -1.16422e-010 2.98337e-011
945
root  77.9663 38.2074 14.5626 -175.762 2.56584 -178.075
RightUpLeg  -27.7802 4.25275 -2.88935
RightLeg  5.04101 16.9607 -0.912212
RightFoot  -8.0863 -0.594931 18.8297
RightToes  -1.33073e-015 0 -3.6325e-017
Spine  -2.33236 -1.14671 1.66119
Spine1  7.94979 -0.327682 -2.50037
HEad  -7.99172 58.7274 -21.6857
LeftShoulder1  0.857921 0.348164 -22.9692
LeftArm  26.341 -3.46493 -62.0784
LeftForeArm  38.2922 -36.1734 -5.9188
LeftHand  -0.0570203 4.99418 12.3986
RightShoulder  1.06675 0.0836187 25.3047
RightArm  -25.4208 -17.5551 45.2758
RightForeArm  71.9273 -5.35858 4.29456
RightHand  0.426206 -8.9541 -14.6472
LeftUpLeg  -0.0894315 -8.17919 -9.90236
LeftLeg  19.7462 -6.56777 -1.00727
LeftFoot  -18.5192 1.07859 15.3139
LeftToes  1.09107e-011 -1.16422e-010 2.98337e-011
946
root  78.1538 38.0065 13.4258 -176.028 2.73106 -178.295
RightUpLeg  -28.1572 8.8524 -3.92033
RightLeg  8.30473 12.6886 -0.104983
RightFoot  -7.8498 -0.572899 16.9188
RightToes  -1.33073e-015 0 -3.6325e-017
Spine  -3.04915 -0.570889 1.48171
Spine1  8.30142 0.172367 -2.3161
HEad  -8.7039 58.6164 -23.4049
LeftShoulder1  0.902175 0.207337 -23.0858
LeftArm  25.022 -2.19805 -60.6725
LeftForeArm  36.6235 -34.996 -5.71036
LeftHand  -0.0660419 4.91568 12.6864
RightShoulder  1.04483 0.0333638 25.1075
RightArm  -23.8273 -16.0955 43.7812
RightForeArm  71.1601 -5.48713 4.88906
RightHand  0.40525 -8.75381 -14.7745
LeftUpLeg  2.16838 -7.2348 -10.1296
LeftLeg  19.76 -7.09442 -1.16216
LeftFoot  -19.7204 1.23692 15.1633
LeftToes  1.09107e-011 -1.16422e-010 2.98337e-011
947
root  78.2432 37.997 12.3776 -175.948 1.30505 -177.885
RightUpLeg  -28.9174 13.9488 -5.32058
RightLeg  11.8042 8.74383 0.28845
RightFoot  -4.9729 -0.877435 15.0788
RightToes  -1.33073e-015 0 -3.6325e-017
Spine  -3.76801 -0.5879 2.51639
Spine1  8.83752 -0.134626 -1.83747
HEad  -9.30352 58.1893 -24.8819
LeftShoulder1  0.946253 0.0560899 -23.0878
LeftArm  25.1774 -1.47818 -59.4055
LeftForeArm  32.5022 -32.5872 -5.34336
LeftHand  -0.0829482 4.7656 12.9096
RightShoulder  1.03932 0.0282011 24.9836
RightArm  -22.731 -14.3961 42.4519
RightForeArm  69.9906 -5.59678 5.27695
RightHand  0.430699 -8.86835 -15.1204
LeftUpLeg  4.09466 -8.63071 -9.59763
LeftLeg  19.369 -7.11889 -1.54314
LeftFoot  -19.5302 1.17318 14.6542
LeftToes  1.09107e-011 -1.16422e-010 2.98337e-011
948
root  78.2825 38.0045 11.3173 -175.953 0.0644684 -177.111
RightUpLeg  -30.033 19.1008 -6.59971
RightLeg  15.2204 3.61043 0.438333
RightFoot  -0.440403 -1.4222 14.7974
RightToes  -1.33073e-015 0 -3.6325e-017
Spine  -3.87478 -0.39112 4.22152
Spine1  8.77959 -0.151407 -1.51191
HEad  -9.42529 57.378 -26.0919
LeftShoulder1  1.00823 -0.122801 -23.3932
LeftArm  26.3234 -1.09538 -58.6007
LeftForeArm  28.5317 -28.767 -4.66792
LeftHand  -0.0777789 4.81211 12.8734
RightShoulder  1.01809 -0.0556893 25.1364
RightArm  -22.5982 -12.5545 41.1143
RightForeArm  69.4319 -5.60772 5.21137
RightHand  0.437195 -8.76507 -15.7553
LeftUpLeg  5.25134 -10.2712 -8.74714
LeftLeg  20.5677 -6.63017 -2.32391
LeftFoot  -18.8174 0.999756 13.4958
LeftToes  1.09107e-011 -1.16422e-010 2.98337e-011
949
root  78.303 37.928 10.2034 -176.328 -0.24649 -176.501
RightUpLeg  -29.9906 20.1504 -5.82029
RightLeg  18.9832 2.95483 0.924656
RightFoot  -0.839617 -1.34835 14.5366
RightToes  -1.33073e-015 0 -3.6325e-017
Spine  -3.90112 -0.0868892 5.63219
Spine1  9.0961 0.140351 -1.72319
HEad  -10.2531 56.8251 -27.6016
LeftShoulder1  1.08697 -0.404669 -23.2766
LeftArm  27.0752 -0.338415 -58.4056
LeftForeArm  24.0134 -24.0501 -3.88275
LeftHand  -0.0621623 4.94505 12.4184
RightShoulder  1.16596 0.426286 25.0865
RightArm  -21.8834 -8.98575 39.9668
RightForeArm  69.4573 -5.66239 5.55078
RightHand  0.454337 -8.7187 -16.5145
LeftUpLeg  5.46588 -8.61046 -7.73262
LeftLeg  24.3493 -8.27273 -3.73362
LeftFoot  -17.5277 0.755329 11.9737
LeftToes  1.09107e-011 -1.16422e-010 2.98337e-011
950
root  78.3142 37.9354 9.18366 -176.638 -1.00595 -175.921
RightUpLeg  -28.9573 18.8448 -4.17563
RightLeg  21.4949 3.7588 1.41965
RightFoot  -2.27086 -1.09851 13.5935
RightToes  -1.33073e-015 0 -3.6325e-017
Spine  -3.78877 -0.14945 6.27268
Spine1  9.34376 -0.113467 -1.06225
HEad  -10.3269 56.7186 -27.9343
LeftShoulder1  1.12279 -0.564171 -22.9796
LeftArm  21.7979 0.60011 -57.7299
LeftForeArm  24.1763 -18.6895 -6.33608
LeftHand  -0.0463741 5.08682 11.7386
RightShoulder  1.25349 0.687588 25.2593
RightArm  -22.4826 -4.06465 39.6882
RightForeArm  71.7663 -5.51071 5.17859
RightHand  0.495405 -8.91898 -16.9073
LeftUpLeg  4.06625 -6.24868 -5.89492
LeftLeg  30.3054 -11.3709 -6.75954
LeftFoot  -14.1783 0.310438 9.06673
LeftToes  1.09107e-011 -1.16422e-010 2.98337e-011
951
root  78.2974 37.983 8.30934 -176.675 -2.54544 -175.337
RightUpLeg  -27.822 17.1559 -2.81921
RightLeg  22.9475 4.00273 1.64186
RightFoot  -3.68535 -0.858081 12.4021
RightToes  -1.33073e-015 0 -3.6325e-017
Spine  -3.79316 -0.21438 7.21546
Spine1  9.79651 -0.353836 -0.110421
HEad  -8.73717 55.8253 -26.2244
LeftShoulder1  1.16832 -0.755057 -22.7242
LeftArm  11.7495 0.596684 -56.5432
LeftForeArm  29.0641 -11.7581 -10.6187
LeftHand  -0.0231041 5.33526 10.0592
RightShoulder  1.27789 0.773774 25.196
RightArm  -23.8863 0.136803 40.4451
RightForeArm  74.0949 -5.26212 4.23957
RightHand  0.555776 -9.30755 -17.0219
LeftUpLeg  0.439127 -3.60095 -3.09767
LeftLeg  38.8239 -14.7683 -12.0642
LeftFoot  -9.10636 0.0057754 2.51185
LeftToes  1.09107e-011 -1.16422e-010 2.98337e-011
952
root  78.2633 38.0249 7.48897 -176.886 -4.24568 -174.899
RightUpLeg  -26.3869 15.3025 -1.75293
RightLeg  24.035 4.36487 1.90591
RightFoot  -5.64953 -0.636978 11.9958
RightToes  -1.33073e-015 0 -3.6325e-017
Spine  -3.14246 0.0859278 8.52791
Spine1  9.60399 0.045768 0.135053
HEad  -6.43536 54.2494 -23.7056
LeftShoulder1  1.18135 -0.810721 -22.6476
LeftArm  3.90359 0.124154 -55.5543
LeftForeArm  34.1624 -4.80939 -12.6581
LeftHand  -0.035799 5.136 6.7662
RightShoulder  1.33347 0.996155 24.8632
RightArm  -24.9164 2.51828 41.5574
RightForeArm  74.8886 -5.10882 3.5116
RightHand  0.618412 -9.63666 -17.3958
LeftUpLeg  -4.0932 -1.51515 -0.334736
LeftLeg  47.8857 -15.7465 -17.4748
LeftFoot  -3.34004 0.626226 -8.65709
LeftToes  1.09107e-011 -1.16422e-010 2.98337e-011
